<svg xmlns="http://www.w3.org/2000/svg" xmlns:xlink="http://www.w3.org/1999/xlink" version="1.1" x="0px" y="0px" viewBox="0 0 100 125" enable-background="new 0 0 100 100" xml:space="preserve"><path d="M35.3271484,46.0981445c-0.2875977-0.5180664-3.0478516-5.534668,0.0209961,0.0375977  c0.1337891,0.2475586,0.2753906,0.5009766,0.4091797,0.7548828c0.0429688-0.0839844,2.9785156-5.9428711,4.7006836-8.7446289  c-3.6079102-5.5786133-8.793457-10.1416016-15.7670898-10.1494141H6.5732422v8.4702148h18.1113281  C29.0219727,36.4736328,32.0395508,40.1362305,35.3271484,46.0981445z"/><path d="M73.5732422,62.6933594H59.2675781c-5.5976563,0-8.9394531-6.1513672-11.2021484-10.4316406  c-1.5444336,2.9306641-2.9589844,5.9150391-4.6923828,8.7460938c1.5932617,2.4658203,3.5,4.8105469,5.8144531,6.6347656  c1.1723633,0.9238281,2.4550781,1.7070313,3.8320313,2.2880859c1.5048828,0.6376953,3.125,0.7441406,4.6181641,1.2324219h15.9355469  v7.5927734l20.4824219-11.8271484L73.5732422,55.1054688V62.6933594z"/><path d="M46.671875,49.5458984c-0.0058594,0.0117188-0.0107422,0.0224609-0.0170898,0.0341797  c0.0170898-0.0332031,0.03125-0.0610352,0.0478516-0.09375c4.0654297-7.9345703,7.3696289-13.0195313,12.5649414-13.0195313  h14.3056641v7.5869141l20.4824219-11.8217773L73.5732422,20.402832v7.59375l-16.0205078,0.0854492  c-9.3510742,0.9238281-14.3125,9.6606445-18.1870117,17.1767578c-1.8662109,3.6196289-3.5932617,7.3330078-5.7836914,10.7734375  c-2.0097656,3.1582031-4.7885742,6.6572266-8.8911133,6.6611328H6.5732422v8.4697266h18.1245117  c12.0141602-0.0097656,17.3007813-12.4521484,21.9433594-21.5566406  C46.644043,49.6010742,46.6533203,49.5820313,46.671875,49.5458984z M48.3789063,46.2089844  C48.4082031,46.1523438,48.4052734,46.1577148,48.3789063,46.2089844L48.3789063,46.2089844z M47.7192383,47.4990234  c0.2084961-0.4072266,0.3632813-0.7104492,0.4711914-0.9213867C48.0664063,46.8203125,47.8989258,47.1479492,47.7192383,47.4990234z   M48.1914063,46.5761719c0.0742188-0.1445313,0.1254883-0.2451172,0.1591797-0.3115234  C48.3139648,46.3359375,48.2602539,46.4414063,48.1914063,46.5761719z"/><text x="0" y="115" fill="#000000" font-size="5px" font-weight="bold" font-family="'Helvetica Neue', Helvetica, Arial-Unicode, Arial, Sans-serif">Created by Hyungsuk,Hwang</text><text x="0" y="120" fill="#000000" font-size="5px" font-weight="bold" font-family="'Helvetica Neue', Helvetica, Arial-Unicode, Arial, Sans-serif">from the Noun Project</text></svg>